<svg width="127" height="34" viewBox="0 0 127 34" fill="none" xmlns="http://www.w3.org/2000/svg">
<rect width="127" height="34" rx="17" fill="#D1FAE5"/>
<path d="M28.8 13.8H18.8V13.4L27.6 12.696V13.4H28.8V12.2C28.8 11.32 28.0872 10.7024 27.2168 10.8264L19.184 11.9736C18.3128 12.0984 17.6 12.92 17.6 13.8V21.8C17.6 22.2243 17.7685 22.6313 18.0686 22.9314C18.3687 23.2314 18.7756 23.4 19.2 23.4H28.8C29.2243 23.4 29.6313 23.2314 29.9313 22.9314C30.2314 22.6313 30.4 22.2243 30.4 21.8V15.4C30.4 14.9756 30.2314 14.5687 29.9313 14.2686C29.6313 13.9686 29.2243 13.8 28.8 13.8ZM27.6 19.4048C27.4423 19.4047 27.2863 19.3736 27.1406 19.3133C26.995 19.2529 26.8627 19.1644 26.7513 19.0529C26.6399 18.9414 26.5515 18.8091 26.4912 18.6634C26.4309 18.5177 26.3999 18.3616 26.4 18.204C26.4 18.0464 26.4311 17.8903 26.4915 17.7446C26.5519 17.599 26.6403 17.4667 26.7518 17.3553C26.8634 17.2439 26.9957 17.1555 27.1414 17.0952C27.287 17.0349 27.4431 17.0039 27.6008 17.004C27.9191 17.0041 28.2244 17.1307 28.4495 17.3559C28.6745 17.5811 28.8009 17.8864 28.8008 18.2048C28.8007 18.5232 28.6741 18.8284 28.4489 19.0535C28.2237 19.2785 27.9183 19.4049 27.6 19.4048Z" fill="#0B9567"/>
<path d="M41.316 22V12.2H45.488C46.132 12.2 46.6733 12.2933 47.112 12.48C47.56 12.6667 47.896 12.9467 48.12 13.32C48.3533 13.684 48.47 14.1273 48.47 14.65C48.47 15.1913 48.3253 15.6487 48.036 16.022C47.7467 16.3953 47.3407 16.652 46.818 16.792L46.804 16.512C47.2427 16.6053 47.6253 16.7733 47.952 17.016C48.2787 17.2493 48.5307 17.5433 48.708 17.898C48.8947 18.2433 48.988 18.64 48.988 19.088C48.988 19.564 48.9087 19.984 48.75 20.348C48.6007 20.712 48.3767 21.0153 48.078 21.258C47.7793 21.5007 47.4247 21.6873 47.014 21.818C46.6033 21.9393 46.1413 22 45.628 22H41.316ZM43.094 20.362H45.544C45.8893 20.362 46.1787 20.3107 46.412 20.208C46.6547 20.1053 46.8367 19.956 46.958 19.76C47.0887 19.5547 47.154 19.312 47.154 19.032C47.154 18.7707 47.084 18.5467 46.944 18.36C46.8133 18.1733 46.622 18.0333 46.37 17.94C46.118 17.8373 45.8193 17.786 45.474 17.786H43.094V20.362ZM43.094 16.218H45.32C45.5907 16.218 45.824 16.1667 46.02 16.064C46.2253 15.9613 46.384 15.8213 46.496 15.644C46.608 15.4667 46.664 15.2613 46.664 15.028C46.664 14.6547 46.538 14.3653 46.286 14.16C46.034 13.9453 45.6653 13.838 45.18 13.838H43.094V16.218ZM54.091 22.14C53.3163 22.14 52.6303 21.9767 52.033 21.65C51.445 21.3233 50.983 20.88 50.647 20.32C50.3203 19.7507 50.157 19.102 50.157 18.374C50.157 17.7953 50.2503 17.268 50.437 16.792C50.6237 16.316 50.8803 15.9053 51.207 15.56C51.543 15.2053 51.9397 14.9347 52.397 14.748C52.8637 14.552 53.3723 14.454 53.923 14.454C54.4083 14.454 54.861 14.5473 55.281 14.734C55.701 14.9207 56.065 15.1773 56.373 15.504C56.681 15.8213 56.9143 16.204 57.073 16.652C57.241 17.0907 57.3203 17.5713 57.311 18.094L57.297 18.696H51.319L50.997 17.52H55.855L55.631 17.758V17.45C55.603 17.1607 55.5097 16.9087 55.351 16.694C55.1923 16.47 54.987 16.2973 54.735 16.176C54.4923 16.0453 54.2217 15.98 53.923 15.98C53.4657 15.98 53.0783 16.0687 52.761 16.246C52.453 16.4233 52.2197 16.68 52.061 17.016C51.9023 17.3427 51.823 17.7533 51.823 18.248C51.823 18.724 51.921 19.1393 52.117 19.494C52.3223 19.8487 52.607 20.124 52.971 20.32C53.3443 20.5067 53.7783 20.6 54.273 20.6C54.6183 20.6 54.9357 20.544 55.225 20.432C55.5143 20.32 55.827 20.1193 56.163 19.83L57.017 21.02C56.765 21.2533 56.4757 21.454 56.149 21.622C55.8317 21.7807 55.4957 21.9067 55.141 22C54.7863 22.0933 54.4363 22.14 54.091 22.14ZM61.3001 22.14C60.6468 22.14 60.0588 22.0327 59.5361 21.818C59.0228 21.594 58.6028 21.2767 58.2761 20.866L59.3961 19.9C59.6761 20.2173 59.9888 20.446 60.3341 20.586C60.6795 20.726 61.0435 20.796 61.4261 20.796C61.5848 20.796 61.7248 20.7773 61.8461 20.74C61.9768 20.7027 62.0888 20.6467 62.1821 20.572C62.2755 20.4973 62.3455 20.4133 62.3921 20.32C62.4481 20.2173 62.4761 20.1053 62.4761 19.984C62.4761 19.76 62.3921 19.5827 62.2241 19.452C62.1308 19.3867 61.9815 19.3167 61.7761 19.242C61.5801 19.1673 61.3235 19.0927 61.0061 19.018C60.5021 18.8873 60.0821 18.738 59.7461 18.57C59.4101 18.3927 59.1488 18.1967 58.9621 17.982C58.8035 17.8047 58.6821 17.604 58.5981 17.38C58.5235 17.156 58.4861 16.9133 58.4861 16.652C58.4861 16.3253 58.5561 16.0313 58.6961 15.77C58.8455 15.4993 59.0461 15.266 59.2981 15.07C59.5501 14.874 59.8441 14.7247 60.1801 14.622C60.5161 14.5193 60.8661 14.468 61.2301 14.468C61.6035 14.468 61.9628 14.5147 62.3081 14.608C62.6628 14.7013 62.9895 14.8367 63.2881 15.014C63.5961 15.182 63.8575 15.3873 64.0721 15.63L63.1201 16.68C62.9428 16.512 62.7468 16.3627 62.5321 16.232C62.3268 16.1013 62.1168 15.9987 61.9021 15.924C61.6875 15.84 61.4868 15.798 61.3001 15.798C61.1228 15.798 60.9641 15.8167 60.8241 15.854C60.6841 15.882 60.5675 15.9287 60.4741 15.994C60.3808 16.0593 60.3061 16.1433 60.2501 16.246C60.2035 16.3393 60.1801 16.4513 60.1801 16.582C60.1895 16.694 60.2175 16.8013 60.2641 16.904C60.3201 16.9973 60.3948 17.0767 60.4881 17.142C60.5908 17.2073 60.7448 17.282 60.9501 17.366C61.1555 17.45 61.4215 17.5293 61.7481 17.604C62.2055 17.7253 62.5881 17.8607 62.8961 18.01C63.2041 18.1593 63.4468 18.332 63.6241 18.528C63.8015 18.696 63.9275 18.892 64.0021 19.116C64.0768 19.34 64.1141 19.5873 64.1141 19.858C64.1141 20.2967 63.9881 20.6887 63.7361 21.034C63.4935 21.3793 63.1575 21.65 62.7281 21.846C62.3081 22.042 61.8321 22.14 61.3001 22.14ZM66.429 22V12.746H68.151V22H66.429ZM64.973 16.218V14.622H69.761V16.218H64.973ZM78.1557 22.14C77.5024 22.14 76.9144 21.9767 76.3917 21.65C75.8784 21.314 75.4677 20.8613 75.1597 20.292C74.861 19.7133 74.7117 19.0507 74.7117 18.304C74.7117 17.5667 74.861 16.9087 75.1597 16.33C75.4584 15.7513 75.8644 15.2987 76.3777 14.972C76.9004 14.636 77.4884 14.468 78.1417 14.468C78.4964 14.468 78.837 14.524 79.1637 14.636C79.4997 14.748 79.7984 14.902 80.0597 15.098C80.321 15.2847 80.5264 15.4947 80.6757 15.728C80.8344 15.9613 80.923 16.204 80.9417 16.456L80.4797 16.512V11.64H82.2017V22H80.5357L80.4937 20.264L80.8297 20.292C80.8204 20.5253 80.7364 20.7493 80.5777 20.964C80.4284 21.1787 80.2324 21.3747 79.9897 21.552C79.747 21.7293 79.4624 21.874 79.1357 21.986C78.8184 22.0887 78.4917 22.14 78.1557 22.14ZM78.4917 20.684C78.893 20.684 79.2477 20.5813 79.5557 20.376C79.8637 20.1707 80.1017 19.8907 80.2697 19.536C80.447 19.1813 80.5357 18.7707 80.5357 18.304C80.5357 17.8467 80.447 17.4407 80.2697 17.086C80.1017 16.722 79.8637 16.442 79.5557 16.246C79.2477 16.0407 78.893 15.938 78.4917 15.938C78.0904 15.938 77.7357 16.0407 77.4277 16.246C77.1197 16.442 76.877 16.722 76.6997 17.086C76.5317 17.4407 76.4477 17.8467 76.4477 18.304C76.4477 18.7707 76.5317 19.1813 76.6997 19.536C76.877 19.8907 77.1197 20.1707 77.4277 20.376C77.7357 20.5813 78.0904 20.684 78.4917 20.684ZM87.6144 22.14C86.8398 22.14 86.1538 21.9767 85.5564 21.65C84.9684 21.3233 84.5064 20.88 84.1704 20.32C83.8438 19.7507 83.6804 19.102 83.6804 18.374C83.6804 17.7953 83.7738 17.268 83.9604 16.792C84.1471 16.316 84.4038 15.9053 84.7304 15.56C85.0664 15.2053 85.4631 14.9347 85.9204 14.748C86.3871 14.552 86.8958 14.454 87.4464 14.454C87.9318 14.454 88.3844 14.5473 88.8044 14.734C89.2244 14.9207 89.5884 15.1773 89.8964 15.504C90.2044 15.8213 90.4378 16.204 90.5964 16.652C90.7644 17.0907 90.8438 17.5713 90.8344 18.094L90.8204 18.696H84.8424L84.5204 17.52H89.3784L89.1544 17.758V17.45C89.1264 17.1607 89.0331 16.9087 88.8744 16.694C88.7158 16.47 88.5104 16.2973 88.2584 16.176C88.0158 16.0453 87.7451 15.98 87.4464 15.98C86.9891 15.98 86.6018 16.0687 86.2844 16.246C85.9764 16.4233 85.7431 16.68 85.5844 17.016C85.4258 17.3427 85.3464 17.7533 85.3464 18.248C85.3464 18.724 85.4444 19.1393 85.6404 19.494C85.8458 19.8487 86.1304 20.124 86.4944 20.32C86.8678 20.5067 87.3018 20.6 87.7964 20.6C88.1418 20.6 88.4591 20.544 88.7484 20.432C89.0378 20.32 89.3504 20.1193 89.6864 19.83L90.5404 21.02C90.2884 21.2533 89.9991 21.454 89.6724 21.622C89.3551 21.7807 89.0191 21.9067 88.6644 22C88.3098 22.0933 87.9598 22.14 87.6144 22.14ZM95.1456 22.14C94.5389 22.14 93.9882 21.972 93.4936 21.636C92.9989 21.3 92.6022 20.8427 92.3036 20.264C92.0049 19.6853 91.8556 19.0273 91.8556 18.29C91.8556 17.5527 92.0049 16.8947 92.3036 16.316C92.6022 15.7373 93.0082 15.2847 93.5216 14.958C94.0349 14.6313 94.6136 14.468 95.2576 14.468C95.6309 14.468 95.9716 14.524 96.2796 14.636C96.5876 14.7387 96.8582 14.888 97.0916 15.084C97.3249 15.28 97.5162 15.504 97.6656 15.756C97.8242 16.008 97.9316 16.2787 97.9876 16.568L97.6096 16.47V14.622H99.3456V22H97.5956V20.236L98.0016 20.166C97.9362 20.418 97.8149 20.6653 97.6376 20.908C97.4696 21.1413 97.2549 21.3513 96.9936 21.538C96.7416 21.7153 96.4569 21.86 96.1396 21.972C95.8316 22.084 95.5002 22.14 95.1456 22.14ZM95.6216 20.614C96.0229 20.614 96.3776 20.516 96.6856 20.32C96.9936 20.124 97.2316 19.8533 97.3996 19.508C97.5769 19.1533 97.6656 18.7473 97.6656 18.29C97.6656 17.842 97.5769 17.4453 97.3996 17.1C97.2316 16.7547 96.9936 16.484 96.6856 16.288C96.3776 16.092 96.0229 15.994 95.6216 15.994C95.2202 15.994 94.8656 16.092 94.5576 16.288C94.2589 16.484 94.0256 16.7547 93.8576 17.1C93.6896 17.4453 93.6056 17.842 93.6056 18.29C93.6056 18.7473 93.6896 19.1533 93.8576 19.508C94.0256 19.8533 94.2589 20.124 94.5576 20.32C94.8656 20.516 95.2202 20.614 95.6216 20.614ZM101.356 22V11.64H103.092V22H101.356ZM107.579 22.14C106.926 22.14 106.338 22.0327 105.815 21.818C105.302 21.594 104.882 21.2767 104.555 20.866L105.675 19.9C105.955 20.2173 106.268 20.446 106.613 20.586C106.959 20.726 107.323 20.796 107.705 20.796C107.864 20.796 108.004 20.7773 108.125 20.74C108.256 20.7027 108.368 20.6467 108.461 20.572C108.555 20.4973 108.625 20.4133 108.671 20.32C108.727 20.2173 108.755 20.1053 108.755 19.984C108.755 19.76 108.671 19.5827 108.503 19.452C108.41 19.3867 108.261 19.3167 108.055 19.242C107.859 19.1673 107.603 19.0927 107.285 19.018C106.781 18.8873 106.361 18.738 106.025 18.57C105.689 18.3927 105.428 18.1967 105.241 17.982C105.083 17.8047 104.961 17.604 104.877 17.38C104.803 17.156 104.765 16.9133 104.765 16.652C104.765 16.3253 104.835 16.0313 104.975 15.77C105.125 15.4993 105.325 15.266 105.577 15.07C105.829 14.874 106.123 14.7247 106.459 14.622C106.795 14.5193 107.145 14.468 107.509 14.468C107.883 14.468 108.242 14.5147 108.587 14.608C108.942 14.7013 109.269 14.8367 109.567 15.014C109.875 15.182 110.137 15.3873 110.351 15.63L109.399 16.68C109.222 16.512 109.026 16.3627 108.811 16.232C108.606 16.1013 108.396 15.9987 108.181 15.924C107.967 15.84 107.766 15.798 107.579 15.798C107.402 15.798 107.243 15.8167 107.103 15.854C106.963 15.882 106.847 15.9287 106.753 15.994C106.66 16.0593 106.585 16.1433 106.529 16.246C106.483 16.3393 106.459 16.4513 106.459 16.582C106.469 16.694 106.497 16.8013 106.543 16.904C106.599 16.9973 106.674 17.0767 106.767 17.142C106.87 17.2073 107.024 17.282 107.229 17.366C107.435 17.45 107.701 17.5293 108.027 17.604C108.485 17.7253 108.867 17.8607 109.175 18.01C109.483 18.1593 109.726 18.332 109.903 18.528C110.081 18.696 110.207 18.892 110.281 19.116C110.356 19.34 110.393 19.5873 110.393 19.858C110.393 20.2967 110.267 20.6887 110.015 21.034C109.773 21.3793 109.437 21.65 109.007 21.846C108.587 22.042 108.111 22.14 107.579 22.14Z" fill="#0B9567"/>
</svg>
