<svg width="68" height="13" viewBox="0 0 68 13" fill="none" xmlns="http://www.w3.org/2000/svg">
<path d="M6.95203 12V0.800049H10.408V12H6.95203ZM0.280029 12V0.800049H3.73603V12H0.280029ZM1.57603 7.92005L1.59203 4.91205H8.90403V7.92005H1.57603Z" fill="#1B1C57"/>
<path d="M16.9835 12.16C16.0555 12.16 15.2289 11.968 14.5035 11.584C13.7782 11.2 13.2075 10.6774 12.7915 10.016C12.3755 9.34405 12.1675 8.57605 12.1675 7.71205C12.1675 6.84805 12.3755 6.08538 12.7915 5.42405C13.2075 4.75205 13.7782 4.22405 14.5035 3.84005C15.2289 3.45605 16.0555 3.26405 16.9835 3.26405C17.9115 3.26405 18.7329 3.45605 19.4475 3.84005C20.1729 4.22405 20.7382 4.75205 21.1435 5.42405C21.5595 6.08538 21.7675 6.84805 21.7675 7.71205C21.7675 8.57605 21.5595 9.34405 21.1435 10.016C20.7382 10.6774 20.1729 11.2 19.4475 11.584C18.7329 11.968 17.9115 12.16 16.9835 12.16ZM16.9835 9.44005C17.2715 9.44005 17.5275 9.36538 17.7515 9.21605C17.9862 9.06672 18.1675 8.86405 18.2955 8.60805C18.4235 8.34138 18.4875 8.04272 18.4875 7.71205C18.4875 7.37072 18.4235 7.07205 18.2955 6.81605C18.1675 6.54938 17.9862 6.34138 17.7515 6.19205C17.5275 6.04272 17.2715 5.96805 16.9835 5.96805C16.6849 5.96805 16.4182 6.04272 16.1835 6.19205C15.9595 6.34138 15.7782 6.54938 15.6395 6.81605C15.5115 7.07205 15.4475 7.37072 15.4475 7.71205C15.4475 8.04272 15.5115 8.34138 15.6395 8.60805C15.7782 8.86405 15.9595 9.06672 16.1835 9.21605C16.4182 9.36538 16.6849 9.44005 16.9835 9.44005Z" fill="#1B1C57"/>
<path d="M26.234 12.1761C25.5834 12.1761 25.034 12.0427 24.586 11.776C24.138 11.5094 23.7967 11.12 23.562 10.608C23.3274 10.0854 23.21 9.45605 23.21 8.72005V3.44005H26.458V8.44805C26.458 8.68272 26.4954 8.88005 26.57 9.04005C26.6554 9.20005 26.7727 9.32272 26.922 9.40805C27.0714 9.49338 27.2527 9.53605 27.466 9.53605C27.626 9.53605 27.77 9.51472 27.898 9.47205C28.0367 9.41872 28.154 9.34405 28.25 9.24805C28.346 9.15205 28.4207 9.04538 28.474 8.92805C28.5274 8.80005 28.554 8.66672 28.554 8.52805V3.44005H31.802V12H28.826L28.634 10.272L29.242 10.08C29.1247 10.4854 28.9167 10.8481 28.618 11.168C28.33 11.4774 27.978 11.7227 27.562 11.904C27.146 12.0854 26.7034 12.1761 26.234 12.1761Z" fill="#1B1C57"/>
<path d="M34.0732 12V3.44005H37.0812L37.2412 5.16805L36.5532 5.36005C36.6705 4.95472 36.8785 4.59738 37.1772 4.28805C37.4865 3.96805 37.8545 3.71738 38.2812 3.53605C38.7078 3.35472 39.1612 3.26405 39.6412 3.26405C40.2812 3.26405 40.8252 3.39738 41.2732 3.66405C41.7212 3.93072 42.0572 4.32538 42.2812 4.84805C42.5158 5.36005 42.6332 5.98405 42.6332 6.72005V12H39.3852V6.99205C39.3852 6.75738 39.3478 6.56005 39.2732 6.40005C39.1985 6.24005 39.0865 6.11738 38.9372 6.03205C38.7878 5.94672 38.6118 5.90405 38.4092 5.90405C38.2492 5.90405 38.0998 5.93072 37.9612 5.98405C37.8332 6.02672 37.7212 6.09605 37.6252 6.19205C37.5292 6.28805 37.4545 6.39472 37.4012 6.51205C37.3478 6.62938 37.3212 6.76272 37.3212 6.91205V12H35.7052C35.2998 12 34.9585 12 34.6812 12C34.4145 12 34.2118 12 34.0732 12Z" fill="#1B1C57"/>
<path d="M45.1618 12V1.28005H48.4098V12H45.1618ZM43.8338 6.16005V3.44005H49.8178V6.16005H43.8338Z" fill="#1B1C57"/>
<path d="M55.3265 12.16C54.3345 12.16 53.4812 11.968 52.7665 11.584C52.0519 11.2 51.5025 10.6774 51.1185 10.016C50.7345 9.34405 50.5425 8.57605 50.5425 7.71205C50.5425 7.07205 50.6492 6.48005 50.8625 5.93605C51.0759 5.39205 51.3745 4.92272 51.7585 4.52805C52.1532 4.12272 52.6119 3.81338 53.1345 3.60005C53.6679 3.37605 54.2492 3.26405 54.8785 3.26405C55.5079 3.26405 56.0785 3.37605 56.5905 3.60005C57.1132 3.81338 57.5612 4.12272 57.9345 4.52805C58.3079 4.92272 58.5905 5.39205 58.7825 5.93605C58.9852 6.48005 59.0759 7.07205 59.0545 7.71205L59.0385 8.38405H52.3345L51.9665 6.86405H56.4625L56.1585 7.18405V6.89605C56.1585 6.69338 56.1052 6.51738 55.9985 6.36805C55.9025 6.20805 55.7639 6.08538 55.5825 6.00005C55.4012 5.91472 55.1879 5.87205 54.9425 5.87205C54.6332 5.87205 54.3719 5.93605 54.1585 6.06405C53.9452 6.19205 53.7799 6.37338 53.6625 6.60805C53.5559 6.84272 53.5025 7.12538 53.5025 7.45605C53.5025 7.84005 53.5825 8.17605 53.7425 8.46405C53.9132 8.75205 54.1585 8.97605 54.4785 9.13605C54.8092 9.29605 55.2145 9.37605 55.6945 9.37605C56.0145 9.37605 56.2865 9.33872 56.5105 9.26405C56.7452 9.17872 56.9905 9.04538 57.2465 8.86405L58.7345 10.96C58.3399 11.2694 57.9505 11.5094 57.5665 11.68C57.1932 11.8507 56.8199 11.9734 56.4465 12.048C56.0839 12.1227 55.7105 12.16 55.3265 12.16Z" fill="#1B1C57"/>
<path d="M60.5575 12V3.44005H63.5655L63.7575 6.28805L63.0375 5.84005C63.1762 5.34938 63.3949 4.91205 63.6935 4.52805C63.9922 4.13338 64.3495 3.82405 64.7655 3.60005C65.1922 3.37605 65.6455 3.26405 66.1255 3.26405C66.3175 3.26405 66.4989 3.28005 66.6695 3.31205C66.8402 3.33338 67.0055 3.36538 67.1655 3.40805L66.2695 7.00805C66.1629 6.93338 65.9922 6.86405 65.7575 6.80005C65.5335 6.73605 65.2882 6.70405 65.0215 6.70405C64.8295 6.70405 64.6535 6.73605 64.4935 6.80005C64.3442 6.85338 64.2162 6.93872 64.1095 7.05605C64.0135 7.17338 63.9389 7.31205 63.8855 7.47205C63.8322 7.63205 63.8055 7.81872 63.8055 8.03205V12H60.5575Z" fill="#1B1C57"/>
</svg>
