<svg width="50" height="50" viewBox="0 0 50 50" fill="none" xmlns="http://www.w3.org/2000/svg">
<rect x="1" y="1" width="48" height="48" rx="24" stroke="#10B981"/>
<path d="M26.8647 18.0018C27.1295 18.0013 27.3861 18.0825 27.59 18.2313C27.7048 18.3151 27.7996 18.4179 27.8692 18.534C27.9387 18.6501 27.9815 18.7771 27.9952 18.9078C28.0089 19.0385 27.9932 19.1703 27.9489 19.2956C27.9047 19.4209 27.8328 19.5374 27.7374 19.6382L22.6603 24.9863L27.556 30.3444C27.6502 30.4465 27.7205 30.5639 27.7629 30.69C27.8053 30.8161 27.819 30.9482 27.8032 31.079C27.7874 31.2097 27.7424 31.3364 27.6708 31.4518C27.5992 31.5672 27.5025 31.669 27.386 31.7513C27.2688 31.8421 27.1315 31.9107 26.9827 31.9526C26.834 31.9945 26.677 32.0088 26.5216 31.9948C26.3663 31.9807 26.2159 31.9385 26.0799 31.8709C25.9439 31.8032 25.8253 31.7116 25.7315 31.6016L20.2578 25.6149C20.0911 25.4364 20 25.2124 20 24.9813C20 24.7502 20.0911 24.5263 20.2578 24.3477L25.9241 18.361C26.0378 18.2403 26.1822 18.1448 26.3457 18.0824C26.5091 18.02 26.6869 17.9924 26.8647 18.0018Z" fill="#10B981"/>
</svg>
