<svg width="132" height="34" viewBox="0 0 132 34" fill="none" xmlns="http://www.w3.org/2000/svg">
<rect width="132" height="34" rx="17" fill="#DBEAFE"/>
<path d="M30 16.2213V22C29.9999 22.1812 29.9508 22.3591 29.8579 22.5147C29.765 22.6703 29.6317 22.7979 29.4723 22.8839C29.3278 22.9622 29.1657 23.0021 29.0014 22.9999H25.9978C25.8652 22.9999 25.738 22.9473 25.6443 22.8535C25.5505 22.7597 25.4978 22.6326 25.4978 22.4999V19.4995C25.4978 19.3669 25.4451 19.2397 25.3514 19.146C25.2576 19.0522 25.1304 18.9995 24.9978 18.9995H22.9978C22.8652 18.9995 22.738 19.0522 22.6443 19.146C22.5505 19.2397 22.4978 19.3669 22.4978 19.4995V22.4999C22.4978 22.6326 22.4451 22.7597 22.3514 22.8535C22.2576 22.9473 22.1304 22.9999 21.9978 22.9999H19.0001C18.8584 23.0003 18.7182 22.9704 18.5889 22.9121C18.4597 22.8539 18.3443 22.7687 18.2507 22.6623C18.0863 22.4721 17.9971 22.2285 18 21.9771V16.2212C18.0001 16.0819 18.0293 15.9441 18.0856 15.8167C18.142 15.6893 18.2243 15.575 18.3273 15.4812L23.3269 10.9354C23.5105 10.7672 23.7505 10.6739 23.9996 10.6738C24.2486 10.6738 24.4886 10.7671 24.6723 10.9353L29.6728 15.4813C29.7757 15.5751 29.858 15.6894 29.9144 15.8168C29.9707 15.9442 29.9999 16.0819 30 16.2213Z" fill="#1D4ED8"/>
<path d="M41.316 22V12.2H42.954L48.638 19.858L48.33 19.914C48.2927 19.6527 48.26 19.3867 48.232 19.116C48.204 18.836 48.176 18.5467 48.148 18.248C48.1293 17.9493 48.1107 17.6367 48.092 17.31C48.0827 16.9833 48.0733 16.6427 48.064 16.288C48.0547 15.924 48.05 15.5413 48.05 15.14V12.2H49.856V22H48.19L42.478 14.454L42.842 14.356C42.8887 14.8787 42.926 15.3267 42.954 15.7C42.9913 16.064 43.0193 16.3813 43.038 16.652C43.0567 16.9133 43.0707 17.1327 43.08 17.31C43.0987 17.4873 43.108 17.6507 43.108 17.8C43.1173 17.94 43.122 18.0753 43.122 18.206V22H41.316ZM55.6359 22.14C54.8613 22.14 54.1753 21.9767 53.5779 21.65C52.9899 21.3233 52.5279 20.88 52.1919 20.32C51.8653 19.7507 51.7019 19.102 51.7019 18.374C51.7019 17.7953 51.7953 17.268 51.9819 16.792C52.1686 16.316 52.4253 15.9053 52.7519 15.56C53.0879 15.2053 53.4846 14.9347 53.9419 14.748C54.4086 14.552 54.9173 14.454 55.4679 14.454C55.9533 14.454 56.4059 14.5473 56.8259 14.734C57.2459 14.9207 57.6099 15.1773 57.9179 15.504C58.2259 15.8213 58.4593 16.204 58.6179 16.652C58.7859 17.0907 58.8653 17.5713 58.8559 18.094L58.8419 18.696H52.8639L52.5419 17.52H57.3999L57.1759 17.758V17.45C57.1479 17.1607 57.0546 16.9087 56.8959 16.694C56.7373 16.47 56.5319 16.2973 56.2799 16.176C56.0373 16.0453 55.7666 15.98 55.4679 15.98C55.0106 15.98 54.6233 16.0687 54.3059 16.246C53.9979 16.4233 53.7646 16.68 53.6059 17.016C53.4473 17.3427 53.3679 17.7533 53.3679 18.248C53.3679 18.724 53.4659 19.1393 53.6619 19.494C53.8673 19.8487 54.1519 20.124 54.5159 20.32C54.8893 20.5067 55.3233 20.6 55.8179 20.6C56.1633 20.6 56.4806 20.544 56.7699 20.432C57.0593 20.32 57.3719 20.1193 57.7079 19.83L58.5619 21.02C58.3099 21.2533 58.0206 21.454 57.6939 21.622C57.3766 21.7807 57.0406 21.9067 56.6859 22C56.3313 22.0933 55.9813 22.14 55.6359 22.14ZM61.9803 22L59.5023 14.622L61.2663 14.608L62.9183 19.872L62.6103 19.844L64.4023 15.728H65.4383L67.2723 19.844L66.9083 19.886L68.5743 14.622H70.3383L67.8463 22H66.6143L64.7243 17.576L64.9903 17.604L63.1983 22H61.9803ZM75.7209 22V11.64H77.4289V16.134L77.1069 16.302C77.2002 15.966 77.3822 15.6627 77.6529 15.392C77.9236 15.112 78.2456 14.888 78.6189 14.72C78.9922 14.552 79.3749 14.468 79.7669 14.468C80.3269 14.468 80.7936 14.58 81.1669 14.804C81.5496 15.028 81.8342 15.364 82.0209 15.812C82.2169 16.26 82.3149 16.82 82.3149 17.492V22H80.5929V17.618C80.5929 17.2447 80.5416 16.9367 80.4389 16.694C80.3362 16.442 80.1776 16.26 79.9629 16.148C79.7482 16.0267 79.4869 15.9707 79.1789 15.98C78.9269 15.98 78.6936 16.022 78.4789 16.106C78.2736 16.1807 78.0916 16.2927 77.9329 16.442C77.7836 16.582 77.6622 16.7453 77.5689 16.932C77.4849 17.1187 77.4429 17.324 77.4429 17.548V22H76.5889C76.4209 22 76.2622 22 76.1129 22C75.9729 22 75.8422 22 75.7209 22ZM87.6261 22.14C86.8888 22.14 86.2308 21.9767 85.6521 21.65C85.0735 21.314 84.6161 20.8567 84.2801 20.278C83.9441 19.6993 83.7761 19.0413 83.7761 18.304C83.7761 17.5667 83.9441 16.9087 84.2801 16.33C84.6161 15.7513 85.0735 15.2987 85.6521 14.972C86.2308 14.636 86.8888 14.468 87.6261 14.468C88.3541 14.468 89.0075 14.636 89.5861 14.972C90.1648 15.2987 90.6175 15.7513 90.9441 16.33C91.2801 16.9087 91.4481 17.5667 91.4481 18.304C91.4481 19.0413 91.2801 19.6993 90.9441 20.278C90.6175 20.8567 90.1648 21.314 89.5861 21.65C89.0075 21.9767 88.3541 22.14 87.6261 22.14ZM87.6261 20.614C88.0275 20.614 88.3821 20.5113 88.6901 20.306C89.0075 20.1007 89.2548 19.8253 89.4321 19.48C89.6188 19.1347 89.7075 18.7427 89.6981 18.304C89.7075 17.856 89.6188 17.4593 89.4321 17.114C89.2548 16.7687 89.0075 16.498 88.6901 16.302C88.3821 16.0967 88.0275 15.994 87.6261 15.994C87.2248 15.994 86.8608 16.0967 86.5341 16.302C86.2168 16.498 85.9695 16.7733 85.7921 17.128C85.6148 17.4733 85.5261 17.8653 85.5261 18.304C85.5261 18.7427 85.6148 19.1347 85.7921 19.48C85.9695 19.8253 86.2168 20.1007 86.5341 20.306C86.8608 20.5113 87.2248 20.614 87.6261 20.614ZM95.5505 22.14C95.0185 22.14 94.5565 22.0233 94.1645 21.79C93.7725 21.5473 93.4738 21.2067 93.2685 20.768C93.0631 20.32 92.9605 19.788 92.9605 19.172V14.622H94.6825V18.808C94.6825 19.2 94.7431 19.536 94.8645 19.816C94.9858 20.0867 95.1631 20.2967 95.3965 20.446C95.6298 20.5953 95.9098 20.67 96.2365 20.67C96.4791 20.67 96.6985 20.6327 96.8945 20.558C97.0998 20.474 97.2771 20.362 97.4265 20.222C97.5758 20.0727 97.6925 19.9 97.7765 19.704C97.8605 19.4987 97.9025 19.2793 97.9025 19.046V14.622H99.6245V22H97.9445L97.9165 20.46L98.2245 20.292C98.1125 20.6467 97.9211 20.964 97.6505 21.244C97.3891 21.5147 97.0765 21.734 96.7125 21.902C96.3485 22.0607 95.9611 22.14 95.5505 22.14ZM104.107 22.14C103.453 22.14 102.865 22.0327 102.343 21.818C101.829 21.594 101.409 21.2767 101.083 20.866L102.203 19.9C102.483 20.2173 102.795 20.446 103.141 20.586C103.486 20.726 103.85 20.796 104.233 20.796C104.391 20.796 104.531 20.7773 104.653 20.74C104.783 20.7027 104.895 20.6467 104.989 20.572C105.082 20.4973 105.152 20.4133 105.199 20.32C105.255 20.2173 105.283 20.1053 105.283 19.984C105.283 19.76 105.199 19.5827 105.031 19.452C104.937 19.3867 104.788 19.3167 104.583 19.242C104.387 19.1673 104.13 19.0927 103.813 19.018C103.309 18.8873 102.889 18.738 102.553 18.57C102.217 18.3927 101.955 18.1967 101.769 17.982C101.61 17.8047 101.489 17.604 101.405 17.38C101.33 17.156 101.293 16.9133 101.293 16.652C101.293 16.3253 101.363 16.0313 101.503 15.77C101.652 15.4993 101.853 15.266 102.105 15.07C102.357 14.874 102.651 14.7247 102.987 14.622C103.323 14.5193 103.673 14.468 104.037 14.468C104.41 14.468 104.769 14.5147 105.115 14.608C105.469 14.7013 105.796 14.8367 106.095 15.014C106.403 15.182 106.664 15.3873 106.879 15.63L105.927 16.68C105.749 16.512 105.553 16.3627 105.339 16.232C105.133 16.1013 104.923 15.9987 104.709 15.924C104.494 15.84 104.293 15.798 104.107 15.798C103.929 15.798 103.771 15.8167 103.631 15.854C103.491 15.882 103.374 15.9287 103.281 15.994C103.187 16.0593 103.113 16.1433 103.057 16.246C103.01 16.3393 102.987 16.4513 102.987 16.582C102.996 16.694 103.024 16.8013 103.071 16.904C103.127 16.9973 103.201 17.0767 103.295 17.142C103.397 17.2073 103.551 17.282 103.757 17.366C103.962 17.45 104.228 17.5293 104.555 17.604C105.012 17.7253 105.395 17.8607 105.703 18.01C106.011 18.1593 106.253 18.332 106.431 18.528C106.608 18.696 106.734 18.892 106.809 19.116C106.883 19.34 106.921 19.5873 106.921 19.858C106.921 20.2967 106.795 20.6887 106.543 21.034C106.3 21.3793 105.964 21.65 105.535 21.846C105.115 22.042 104.639 22.14 104.107 22.14ZM111.896 22.14C111.121 22.14 110.435 21.9767 109.838 21.65C109.25 21.3233 108.788 20.88 108.452 20.32C108.125 19.7507 107.962 19.102 107.962 18.374C107.962 17.7953 108.055 17.268 108.242 16.792C108.428 16.316 108.685 15.9053 109.012 15.56C109.348 15.2053 109.744 14.9347 110.202 14.748C110.668 14.552 111.177 14.454 111.728 14.454C112.213 14.454 112.666 14.5473 113.086 14.734C113.506 14.9207 113.87 15.1773 114.178 15.504C114.486 15.8213 114.719 16.204 114.878 16.652C115.046 17.0907 115.125 17.5713 115.116 18.094L115.102 18.696H109.124L108.802 17.52H113.66L113.436 17.758V17.45C113.408 17.1607 113.314 16.9087 113.156 16.694C112.997 16.47 112.792 16.2973 112.54 16.176C112.297 16.0453 112.026 15.98 111.728 15.98C111.27 15.98 110.883 16.0687 110.566 16.246C110.258 16.4233 110.024 16.68 109.866 17.016C109.707 17.3427 109.628 17.7533 109.628 18.248C109.628 18.724 109.726 19.1393 109.922 19.494C110.127 19.8487 110.412 20.124 110.776 20.32C111.149 20.5067 111.583 20.6 112.078 20.6C112.423 20.6 112.74 20.544 113.03 20.432C113.319 20.32 113.632 20.1193 113.968 19.83L114.822 21.02C114.57 21.2533 114.28 21.454 113.954 21.622C113.636 21.7807 113.3 21.9067 112.946 22C112.591 22.0933 112.241 22.14 111.896 22.14Z" fill="#1D4ED8"/>
</svg>
