<svg width="110" height="34" viewBox="0 0 110 34" fill="none" xmlns="http://www.w3.org/2000/svg">
<rect width="110" height="34" rx="17" fill="#FEE2E2"/>
<path d="M29.0328 16.3312C28.7295 15.6485 28.2885 15.0357 27.7375 14.5312L27.2828 14.1141C27.2674 14.1003 27.2488 14.0905 27.2287 14.0856C27.2086 14.0807 27.1876 14.0808 27.1675 14.0858C27.1475 14.0909 27.129 14.1009 27.1137 14.1148C27.0984 14.1287 27.0867 14.1461 27.0797 14.1656L26.8766 14.7484C26.75 15.1141 26.5172 15.4875 26.1875 15.8547C26.1656 15.8781 26.1406 15.8844 26.1234 15.8859C26.1063 15.8875 26.0797 15.8844 26.0562 15.8625C26.0344 15.8437 26.0234 15.8156 26.025 15.7875C26.0828 14.8469 25.8016 13.7859 25.1859 12.6312C24.6766 11.6719 23.9688 10.9234 23.0844 10.4016L22.4391 10.0219C22.3547 9.97187 22.2469 10.0375 22.2516 10.1359L22.2859 10.8859C22.3094 11.3984 22.25 11.8516 22.1094 12.2281C21.9375 12.6891 21.6906 13.1172 21.375 13.5016C21.1553 13.7687 20.9064 14.0103 20.6328 14.2219C19.9739 14.7284 19.4381 15.3774 19.0656 16.1203C18.694 16.8697 18.5005 17.6948 18.5 18.5312C18.5 19.2687 18.6453 19.9828 18.9328 20.6562C19.2104 21.3046 19.611 21.8931 20.1125 22.3891C20.6188 22.8891 21.2063 23.2828 21.8609 23.5562C22.5391 23.8406 23.2578 23.9844 24 23.9844C24.7422 23.9844 25.4609 23.8406 26.1391 23.5578C26.7921 23.286 27.386 22.8895 27.8875 22.3906C28.3938 21.8906 28.7906 21.3062 29.0672 20.6578C29.3543 19.9862 29.5015 19.2632 29.5 18.5328C29.5 17.7703 29.3438 17.0297 29.0328 16.3312Z" fill="#EF4444"/>
<path d="M41.316 22V12.2H45.39C45.95 12.2 46.454 12.3353 46.902 12.606C47.3593 12.8767 47.7233 13.2453 47.994 13.712C48.2647 14.1787 48.4 14.7013 48.4 15.28C48.4 15.868 48.2647 16.4 47.994 16.876C47.7233 17.3427 47.3593 17.716 46.902 17.996C46.454 18.276 45.95 18.416 45.39 18.416H43.136V22H41.316ZM43.136 16.736H45.264C45.4973 16.736 45.7073 16.6707 45.894 16.54C46.09 16.4093 46.244 16.2367 46.356 16.022C46.4773 15.8073 46.538 15.5647 46.538 15.294C46.538 15.0233 46.4773 14.7853 46.356 14.58C46.244 14.3653 46.09 14.1973 45.894 14.076C45.7073 13.9453 45.4973 13.88 45.264 13.88H43.136V16.736ZM53.255 22.14C52.5177 22.14 51.8597 21.9767 51.281 21.65C50.7024 21.314 50.245 20.8567 49.909 20.278C49.573 19.6993 49.405 19.0413 49.405 18.304C49.405 17.5667 49.573 16.9087 49.909 16.33C50.245 15.7513 50.7024 15.2987 51.281 14.972C51.8597 14.636 52.5177 14.468 53.255 14.468C53.983 14.468 54.6364 14.636 55.215 14.972C55.7937 15.2987 56.2464 15.7513 56.573 16.33C56.909 16.9087 57.077 17.5667 57.077 18.304C57.077 19.0413 56.909 19.6993 56.573 20.278C56.2464 20.8567 55.7937 21.314 55.215 21.65C54.6364 21.9767 53.983 22.14 53.255 22.14ZM53.255 20.614C53.6564 20.614 54.011 20.5113 54.319 20.306C54.6364 20.1007 54.8837 19.8253 55.061 19.48C55.2477 19.1347 55.3364 18.7427 55.327 18.304C55.3364 17.856 55.2477 17.4593 55.061 17.114C54.8837 16.7687 54.6364 16.498 54.319 16.302C54.011 16.0967 53.6564 15.994 53.255 15.994C52.8537 15.994 52.4897 16.0967 52.163 16.302C51.8457 16.498 51.5984 16.7733 51.421 17.128C51.2437 17.4733 51.155 17.8653 51.155 18.304C51.155 18.7427 51.2437 19.1347 51.421 19.48C51.5984 19.8253 51.8457 20.1007 52.163 20.306C52.4897 20.5113 52.8537 20.614 53.255 20.614ZM58.6174 25.08V14.622H60.3114L60.3394 16.302L60.0454 16.176C60.1014 15.8867 60.26 15.616 60.5214 15.364C60.7827 15.1027 61.1 14.8927 61.4734 14.734C61.856 14.5753 62.2527 14.496 62.6634 14.496C63.3167 14.496 63.8954 14.6593 64.3994 14.986C64.9127 15.3127 65.314 15.7607 65.6034 16.33C65.902 16.8993 66.0514 17.5573 66.0514 18.304C66.0514 19.0413 65.902 19.6993 65.6034 20.278C65.314 20.8473 64.9127 21.3 64.3994 21.636C63.8954 21.9627 63.326 22.126 62.6914 22.126C62.262 22.126 61.8467 22.042 61.4454 21.874C61.0534 21.706 60.7174 21.4867 60.4374 21.216C60.1667 20.9453 59.9987 20.6607 59.9334 20.362L60.3534 20.166V25.08H58.6174ZM62.3414 20.6C62.7334 20.6 63.0834 20.502 63.3914 20.306C63.6994 20.11 63.9374 19.8393 64.1054 19.494C64.2827 19.1487 64.3714 18.752 64.3714 18.304C64.3714 17.856 64.2874 17.464 64.1194 17.128C63.9514 16.7827 63.7134 16.512 63.4054 16.316C63.0974 16.12 62.7427 16.022 62.3414 16.022C61.9307 16.022 61.5714 16.12 61.2634 16.316C60.9647 16.5027 60.7267 16.7687 60.5494 17.114C60.372 17.4593 60.2834 17.856 60.2834 18.304C60.2834 18.752 60.372 19.1487 60.5494 19.494C60.7267 19.8393 60.9647 20.11 61.2634 20.306C61.5714 20.502 61.9307 20.6 62.3414 20.6ZM70.1481 22.14C69.6161 22.14 69.1541 22.0233 68.7621 21.79C68.3701 21.5473 68.0715 21.2067 67.8661 20.768C67.6608 20.32 67.5581 19.788 67.5581 19.172V14.622H69.2801V18.808C69.2801 19.2 69.3408 19.536 69.4621 19.816C69.5835 20.0867 69.7608 20.2967 69.9941 20.446C70.2275 20.5953 70.5075 20.67 70.8341 20.67C71.0768 20.67 71.2961 20.6327 71.4921 20.558C71.6975 20.474 71.8748 20.362 72.0241 20.222C72.1735 20.0727 72.2901 19.9 72.3741 19.704C72.4581 19.4987 72.5001 19.2793 72.5001 19.046V14.622H74.2221V22H72.5421L72.5141 20.46L72.8221 20.292C72.7101 20.6467 72.5188 20.964 72.2481 21.244C71.9868 21.5147 71.6741 21.734 71.3101 21.902C70.9461 22.0607 70.5588 22.14 70.1481 22.14ZM76.2544 22V11.64H77.9904V22H76.2544ZM82.6631 22.14C82.0565 22.14 81.5058 21.972 81.0111 21.636C80.5165 21.3 80.1198 20.8427 79.8211 20.264C79.5225 19.6853 79.3731 19.0273 79.3731 18.29C79.3731 17.5527 79.5225 16.8947 79.8211 16.316C80.1198 15.7373 80.5258 15.2847 81.0391 14.958C81.5525 14.6313 82.1311 14.468 82.7751 14.468C83.1485 14.468 83.4891 14.524 83.7971 14.636C84.1051 14.7387 84.3758 14.888 84.6091 15.084C84.8425 15.28 85.0338 15.504 85.1831 15.756C85.3418 16.008 85.4491 16.2787 85.5051 16.568L85.1271 16.47V14.622H86.8631V22H85.1131V20.236L85.5191 20.166C85.4538 20.418 85.3325 20.6653 85.1551 20.908C84.9871 21.1413 84.7725 21.3513 84.5111 21.538C84.2591 21.7153 83.9745 21.86 83.6571 21.972C83.3491 22.084 83.0178 22.14 82.6631 22.14ZM83.1391 20.614C83.5405 20.614 83.8951 20.516 84.2031 20.32C84.5111 20.124 84.7491 19.8533 84.9171 19.508C85.0945 19.1533 85.1831 18.7473 85.1831 18.29C85.1831 17.842 85.0945 17.4453 84.9171 17.1C84.7491 16.7547 84.5111 16.484 84.2031 16.288C83.8951 16.092 83.5405 15.994 83.1391 15.994C82.7378 15.994 82.3831 16.092 82.0751 16.288C81.7765 16.484 81.5431 16.7547 81.3751 17.1C81.2071 17.4453 81.1231 17.842 81.1231 18.29C81.1231 18.7473 81.2071 19.1533 81.3751 19.508C81.5431 19.8533 81.7765 20.124 82.0751 20.32C82.3831 20.516 82.7378 20.614 83.1391 20.614ZM88.8596 22V14.622H90.5536L90.5816 16.974L90.3436 16.442C90.4462 16.0687 90.6236 15.7327 90.8756 15.434C91.1276 15.1353 91.4169 14.902 91.7436 14.734C92.0796 14.5567 92.4296 14.468 92.7936 14.468C92.9522 14.468 93.1016 14.482 93.2416 14.51C93.3909 14.538 93.5122 14.5707 93.6056 14.608L93.1436 16.498C93.0409 16.442 92.9149 16.3953 92.7656 16.358C92.6162 16.3207 92.4669 16.302 92.3176 16.302C92.0842 16.302 91.8602 16.3487 91.6456 16.442C91.4402 16.526 91.2582 16.6473 91.0996 16.806C90.9409 16.9647 90.8149 17.1513 90.7216 17.366C90.6376 17.5713 90.5956 17.8047 90.5956 18.066V22H88.8596Z" fill="#EF4444"/>
</svg>
