<svg width="50" height="50" viewBox="0 0 50 50" fill="none" xmlns="http://www.w3.org/2000/svg">
<rect x="1" y="1" width="48" height="48" rx="24" fill="#10B981"/>
<rect x="1" y="1" width="48" height="48" rx="24" stroke="#10B981"/>
<path d="M23.1353 18.0018C22.8705 18.0013 22.6139 18.0825 22.41 18.2313C22.2952 18.3151 22.2004 18.4179 22.1308 18.534C22.0613 18.6501 22.0185 18.7771 22.0048 18.9078C21.9911 19.0385 22.0068 19.1703 22.0511 19.2956C22.0953 19.4209 22.1672 19.5374 22.2626 19.6382L27.3397 24.9863L22.444 30.3444C22.3498 30.4465 22.2795 30.5639 22.2371 30.69C22.1947 30.8161 22.181 30.9482 22.1968 31.079C22.2126 31.2097 22.2576 31.3364 22.3292 31.4518C22.4008 31.5672 22.4975 31.669 22.614 31.7513C22.7312 31.8421 22.8685 31.9107 23.0173 31.9526C23.166 31.9945 23.323 32.0088 23.4784 31.9948C23.6337 31.9807 23.7841 31.9385 23.9201 31.8709C24.0561 31.8032 24.1747 31.7116 24.2685 31.6016L29.7422 25.6149C29.9089 25.4364 30 25.2124 30 24.9813C30 24.7502 29.9089 24.5263 29.7422 24.3477L24.0759 18.361C23.9622 18.2403 23.8178 18.1448 23.6543 18.0824C23.4909 18.02 23.3131 17.9924 23.1353 18.0018Z" fill="white"/>
</svg>
